<mxfile host="app.diagrams.net" modified="2023-10-12T06:59:35.128Z" agent="Mozilla/5.0 (Windows NT 10.0; Win64; x64) AppleWebKit/537.36 (KHTML, like Gecko) Chrome/94.0.4606.61 Safari/537.36" etag="QvNLqPnVVUPvnedwGKJj" version="22.0.4" type="device">
  <diagram id="C5RBs43oDa-KdzZeNtuy" name="Page-1">
    <mxGraphModel dx="989" dy="527" grid="1" gridSize="10" guides="1" tooltips="1" connect="1" arrows="1" fold="1" page="1" pageScale="1" pageWidth="827" pageHeight="1169" math="0" shadow="0">
      <root>
        <mxCell id="WIyWlLk6GJQsqaUBKTNV-0" />
        <mxCell id="WIyWlLk6GJQsqaUBKTNV-1" parent="WIyWlLk6GJQsqaUBKTNV-0" />
        <mxCell id="8wObXkx3-vW0UOG89S4S-2" style="edgeStyle=orthogonalEdgeStyle;rounded=0;orthogonalLoop=1;jettySize=auto;html=1;exitX=0.5;exitY=1;exitDx=0;exitDy=0;entryX=0.5;entryY=0;entryDx=0;entryDy=0;" edge="1" parent="WIyWlLk6GJQsqaUBKTNV-1" source="WIyWlLk6GJQsqaUBKTNV-3" target="8wObXkx3-vW0UOG89S4S-1">
          <mxGeometry relative="1" as="geometry" />
        </mxCell>
        <mxCell id="WIyWlLk6GJQsqaUBKTNV-3" value="Start" style="rounded=1;whiteSpace=wrap;html=1;fontSize=12;glass=0;strokeWidth=1;shadow=0;" parent="WIyWlLk6GJQsqaUBKTNV-1" vertex="1">
          <mxGeometry x="40" y="40" width="120" height="40" as="geometry" />
        </mxCell>
        <mxCell id="8wObXkx3-vW0UOG89S4S-5" style="edgeStyle=orthogonalEdgeStyle;rounded=0;orthogonalLoop=1;jettySize=auto;html=1;exitX=0.5;exitY=1;exitDx=0;exitDy=0;" edge="1" parent="WIyWlLk6GJQsqaUBKTNV-1" source="8wObXkx3-vW0UOG89S4S-1" target="8wObXkx3-vW0UOG89S4S-4">
          <mxGeometry relative="1" as="geometry" />
        </mxCell>
        <mxCell id="8wObXkx3-vW0UOG89S4S-1" value="Dashboard / Ãœbersicht" style="rounded=1;whiteSpace=wrap;html=1;fontSize=12;glass=0;strokeWidth=1;shadow=0;" vertex="1" parent="WIyWlLk6GJQsqaUBKTNV-1">
          <mxGeometry x="40" y="110" width="120" height="40" as="geometry" />
        </mxCell>
        <mxCell id="8wObXkx3-vW0UOG89S4S-21" style="edgeStyle=orthogonalEdgeStyle;rounded=0;orthogonalLoop=1;jettySize=auto;html=1;exitX=0.5;exitY=1;exitDx=0;exitDy=0;entryX=0.5;entryY=1;entryDx=0;entryDy=0;" edge="1" parent="WIyWlLk6GJQsqaUBKTNV-1" source="8wObXkx3-vW0UOG89S4S-4" target="8wObXkx3-vW0UOG89S4S-8">
          <mxGeometry relative="1" as="geometry" />
        </mxCell>
        <mxCell id="8wObXkx3-vW0UOG89S4S-22" style="edgeStyle=orthogonalEdgeStyle;rounded=0;orthogonalLoop=1;jettySize=auto;html=1;exitX=0.5;exitY=1;exitDx=0;exitDy=0;entryX=0.5;entryY=1;entryDx=0;entryDy=0;" edge="1" parent="WIyWlLk6GJQsqaUBKTNV-1" source="8wObXkx3-vW0UOG89S4S-4" target="8wObXkx3-vW0UOG89S4S-14">
          <mxGeometry relative="1" as="geometry" />
        </mxCell>
        <mxCell id="8wObXkx3-vW0UOG89S4S-26" style="edgeStyle=orthogonalEdgeStyle;rounded=0;orthogonalLoop=1;jettySize=auto;html=1;exitX=0.5;exitY=1;exitDx=0;exitDy=0;entryX=0.5;entryY=1;entryDx=0;entryDy=0;" edge="1" parent="WIyWlLk6GJQsqaUBKTNV-1" source="8wObXkx3-vW0UOG89S4S-4" target="8wObXkx3-vW0UOG89S4S-25">
          <mxGeometry relative="1" as="geometry" />
        </mxCell>
        <mxCell id="8wObXkx3-vW0UOG89S4S-4" value="" style="rhombus;whiteSpace=wrap;html=1;" vertex="1" parent="WIyWlLk6GJQsqaUBKTNV-1">
          <mxGeometry x="60" y="180" width="80" height="80" as="geometry" />
        </mxCell>
        <mxCell id="8wObXkx3-vW0UOG89S4S-13" style="edgeStyle=orthogonalEdgeStyle;rounded=0;orthogonalLoop=1;jettySize=auto;html=1;exitX=0.5;exitY=0;exitDx=0;exitDy=0;entryX=1;entryY=0.5;entryDx=0;entryDy=0;" edge="1" parent="WIyWlLk6GJQsqaUBKTNV-1" source="8wObXkx3-vW0UOG89S4S-8" target="8wObXkx3-vW0UOG89S4S-1">
          <mxGeometry relative="1" as="geometry" />
        </mxCell>
        <mxCell id="8wObXkx3-vW0UOG89S4S-42" style="edgeStyle=orthogonalEdgeStyle;rounded=0;orthogonalLoop=1;jettySize=auto;html=1;exitX=0;exitY=0.5;exitDx=0;exitDy=0;entryX=0.5;entryY=0;entryDx=0;entryDy=0;" edge="1" parent="WIyWlLk6GJQsqaUBKTNV-1" source="8wObXkx3-vW0UOG89S4S-8" target="8wObXkx3-vW0UOG89S4S-39">
          <mxGeometry relative="1" as="geometry" />
        </mxCell>
        <mxCell id="8wObXkx3-vW0UOG89S4S-8" value="Armee bearbeiten" style="rhombus;whiteSpace=wrap;html=1;" vertex="1" parent="WIyWlLk6GJQsqaUBKTNV-1">
          <mxGeometry x="180" y="180" width="80" height="80" as="geometry" />
        </mxCell>
        <mxCell id="8wObXkx3-vW0UOG89S4S-12" value="Nein" style="text;html=1;strokeColor=none;fillColor=none;align=center;verticalAlign=middle;whiteSpace=wrap;rounded=0;" vertex="1" parent="WIyWlLk6GJQsqaUBKTNV-1">
          <mxGeometry x="170" y="150" width="60" height="30" as="geometry" />
        </mxCell>
        <mxCell id="8wObXkx3-vW0UOG89S4S-23" style="edgeStyle=orthogonalEdgeStyle;rounded=0;orthogonalLoop=1;jettySize=auto;html=1;exitX=0.5;exitY=0;exitDx=0;exitDy=0;entryX=1;entryY=0.5;entryDx=0;entryDy=0;" edge="1" parent="WIyWlLk6GJQsqaUBKTNV-1" source="8wObXkx3-vW0UOG89S4S-14" target="8wObXkx3-vW0UOG89S4S-1">
          <mxGeometry relative="1" as="geometry" />
        </mxCell>
        <mxCell id="8wObXkx3-vW0UOG89S4S-44" style="edgeStyle=orthogonalEdgeStyle;rounded=0;orthogonalLoop=1;jettySize=auto;html=1;exitX=1;exitY=0.5;exitDx=0;exitDy=0;entryX=0.5;entryY=0;entryDx=0;entryDy=0;" edge="1" parent="WIyWlLk6GJQsqaUBKTNV-1" source="8wObXkx3-vW0UOG89S4S-14" target="8wObXkx3-vW0UOG89S4S-43">
          <mxGeometry relative="1" as="geometry" />
        </mxCell>
        <mxCell id="8wObXkx3-vW0UOG89S4S-14" value="Armee erstellen" style="rhombus;whiteSpace=wrap;html=1;" vertex="1" parent="WIyWlLk6GJQsqaUBKTNV-1">
          <mxGeometry x="290" y="180" width="80" height="80" as="geometry" />
        </mxCell>
        <mxCell id="8wObXkx3-vW0UOG89S4S-24" value="Nein" style="text;html=1;strokeColor=none;fillColor=none;align=center;verticalAlign=middle;whiteSpace=wrap;rounded=0;" vertex="1" parent="WIyWlLk6GJQsqaUBKTNV-1">
          <mxGeometry x="280" y="150" width="60" height="30" as="geometry" />
        </mxCell>
        <mxCell id="8wObXkx3-vW0UOG89S4S-33" style="edgeStyle=orthogonalEdgeStyle;rounded=0;orthogonalLoop=1;jettySize=auto;html=1;exitX=0.5;exitY=0;exitDx=0;exitDy=0;entryX=0.5;entryY=1;entryDx=0;entryDy=0;" edge="1" parent="WIyWlLk6GJQsqaUBKTNV-1" source="8wObXkx3-vW0UOG89S4S-25" target="8wObXkx3-vW0UOG89S4S-31">
          <mxGeometry relative="1" as="geometry" />
        </mxCell>
        <mxCell id="8wObXkx3-vW0UOG89S4S-25" value="Armee&amp;nbsp; suchen" style="rhombus;whiteSpace=wrap;html=1;" vertex="1" parent="WIyWlLk6GJQsqaUBKTNV-1">
          <mxGeometry x="400" y="180" width="80" height="80" as="geometry" />
        </mxCell>
        <mxCell id="8wObXkx3-vW0UOG89S4S-28" value="Ja" style="text;html=1;strokeColor=none;fillColor=none;align=center;verticalAlign=middle;whiteSpace=wrap;rounded=0;" vertex="1" parent="WIyWlLk6GJQsqaUBKTNV-1">
          <mxGeometry x="400" y="155" width="60" height="30" as="geometry" />
        </mxCell>
        <mxCell id="8wObXkx3-vW0UOG89S4S-36" style="edgeStyle=orthogonalEdgeStyle;rounded=0;orthogonalLoop=1;jettySize=auto;html=1;exitX=0;exitY=0.25;exitDx=0;exitDy=0;entryX=1;entryY=0.25;entryDx=0;entryDy=0;" edge="1" parent="WIyWlLk6GJQsqaUBKTNV-1" source="8wObXkx3-vW0UOG89S4S-31" target="8wObXkx3-vW0UOG89S4S-1">
          <mxGeometry relative="1" as="geometry" />
        </mxCell>
        <mxCell id="8wObXkx3-vW0UOG89S4S-31" value="Datenbankabfrage mit Suchparameter erweitern" style="rounded=1;whiteSpace=wrap;html=1;fontSize=12;glass=0;strokeWidth=1;shadow=0;" vertex="1" parent="WIyWlLk6GJQsqaUBKTNV-1">
          <mxGeometry x="380" y="107" width="120" height="50" as="geometry" />
        </mxCell>
        <mxCell id="8wObXkx3-vW0UOG89S4S-46" style="edgeStyle=orthogonalEdgeStyle;rounded=0;orthogonalLoop=1;jettySize=auto;html=1;exitX=1;exitY=0.5;exitDx=0;exitDy=0;entryX=0;entryY=0.5;entryDx=0;entryDy=0;" edge="1" parent="WIyWlLk6GJQsqaUBKTNV-1" source="8wObXkx3-vW0UOG89S4S-39" target="8wObXkx3-vW0UOG89S4S-43">
          <mxGeometry relative="1" as="geometry" />
        </mxCell>
        <mxCell id="8wObXkx3-vW0UOG89S4S-39" value="Armee in Creator laden" style="rounded=1;whiteSpace=wrap;html=1;fontSize=12;glass=0;strokeWidth=1;shadow=0;" vertex="1" parent="WIyWlLk6GJQsqaUBKTNV-1">
          <mxGeometry x="100" y="330" width="120" height="40" as="geometry" />
        </mxCell>
        <mxCell id="8wObXkx3-vW0UOG89S4S-41" value="Ja" style="text;html=1;strokeColor=none;fillColor=none;align=center;verticalAlign=middle;whiteSpace=wrap;rounded=0;" vertex="1" parent="WIyWlLk6GJQsqaUBKTNV-1">
          <mxGeometry x="140" y="190" width="60" height="30" as="geometry" />
        </mxCell>
        <mxCell id="8wObXkx3-vW0UOG89S4S-53" style="edgeStyle=orthogonalEdgeStyle;rounded=0;orthogonalLoop=1;jettySize=auto;html=1;exitX=1;exitY=0.5;exitDx=0;exitDy=0;entryX=0;entryY=0.5;entryDx=0;entryDy=0;" edge="1" parent="WIyWlLk6GJQsqaUBKTNV-1" source="8wObXkx3-vW0UOG89S4S-43" target="8wObXkx3-vW0UOG89S4S-51">
          <mxGeometry relative="1" as="geometry" />
        </mxCell>
        <mxCell id="8wObXkx3-vW0UOG89S4S-43" value="Armee Creator Ansicht" style="rounded=1;whiteSpace=wrap;html=1;fontSize=12;glass=0;strokeWidth=1;shadow=0;" vertex="1" parent="WIyWlLk6GJQsqaUBKTNV-1">
          <mxGeometry x="330" y="330" width="120" height="40" as="geometry" />
        </mxCell>
        <mxCell id="8wObXkx3-vW0UOG89S4S-45" value="Ja" style="text;html=1;strokeColor=none;fillColor=none;align=center;verticalAlign=middle;whiteSpace=wrap;rounded=0;" vertex="1" parent="WIyWlLk6GJQsqaUBKTNV-1">
          <mxGeometry x="350" y="190" width="60" height="30" as="geometry" />
        </mxCell>
        <mxCell id="8wObXkx3-vW0UOG89S4S-56" style="edgeStyle=orthogonalEdgeStyle;rounded=0;orthogonalLoop=1;jettySize=auto;html=1;exitX=0.5;exitY=1;exitDx=0;exitDy=0;entryX=0.5;entryY=0;entryDx=0;entryDy=0;" edge="1" parent="WIyWlLk6GJQsqaUBKTNV-1" source="8wObXkx3-vW0UOG89S4S-51" target="8wObXkx3-vW0UOG89S4S-55">
          <mxGeometry relative="1" as="geometry" />
        </mxCell>
        <mxCell id="8wObXkx3-vW0UOG89S4S-63" style="edgeStyle=orthogonalEdgeStyle;rounded=0;orthogonalLoop=1;jettySize=auto;html=1;exitX=0.5;exitY=1;exitDx=0;exitDy=0;entryX=0.5;entryY=0;entryDx=0;entryDy=0;" edge="1" parent="WIyWlLk6GJQsqaUBKTNV-1" source="8wObXkx3-vW0UOG89S4S-51" target="8wObXkx3-vW0UOG89S4S-62">
          <mxGeometry relative="1" as="geometry" />
        </mxCell>
        <mxCell id="8wObXkx3-vW0UOG89S4S-67" style="edgeStyle=orthogonalEdgeStyle;rounded=0;orthogonalLoop=1;jettySize=auto;html=1;exitX=0.5;exitY=0;exitDx=0;exitDy=0;entryX=0.5;entryY=1;entryDx=0;entryDy=0;" edge="1" parent="WIyWlLk6GJQsqaUBKTNV-1" source="8wObXkx3-vW0UOG89S4S-51" target="8wObXkx3-vW0UOG89S4S-66">
          <mxGeometry relative="1" as="geometry" />
        </mxCell>
        <mxCell id="8wObXkx3-vW0UOG89S4S-51" value="" style="rhombus;whiteSpace=wrap;html=1;" vertex="1" parent="WIyWlLk6GJQsqaUBKTNV-1">
          <mxGeometry x="520" y="310" width="80" height="80" as="geometry" />
        </mxCell>
        <mxCell id="8wObXkx3-vW0UOG89S4S-57" style="edgeStyle=orthogonalEdgeStyle;rounded=0;orthogonalLoop=1;jettySize=auto;html=1;exitX=1;exitY=0.5;exitDx=0;exitDy=0;entryX=1;entryY=0.5;entryDx=0;entryDy=0;" edge="1" parent="WIyWlLk6GJQsqaUBKTNV-1" source="8wObXkx3-vW0UOG89S4S-55" target="8wObXkx3-vW0UOG89S4S-51">
          <mxGeometry relative="1" as="geometry" />
        </mxCell>
        <mxCell id="8wObXkx3-vW0UOG89S4S-61" style="edgeStyle=orthogonalEdgeStyle;rounded=0;orthogonalLoop=1;jettySize=auto;html=1;exitX=0.5;exitY=1;exitDx=0;exitDy=0;entryX=0.75;entryY=0;entryDx=0;entryDy=0;" edge="1" parent="WIyWlLk6GJQsqaUBKTNV-1" source="8wObXkx3-vW0UOG89S4S-55" target="8wObXkx3-vW0UOG89S4S-1">
          <mxGeometry relative="1" as="geometry">
            <Array as="points">
              <mxPoint x="560" y="530" />
              <mxPoint x="670" y="530" />
              <mxPoint x="670" y="90" />
              <mxPoint x="130" y="90" />
            </Array>
          </mxGeometry>
        </mxCell>
        <mxCell id="8wObXkx3-vW0UOG89S4S-55" value="Speichern" style="rhombus;whiteSpace=wrap;html=1;" vertex="1" parent="WIyWlLk6GJQsqaUBKTNV-1">
          <mxGeometry x="520" y="430" width="80" height="80" as="geometry" />
        </mxCell>
        <mxCell id="8wObXkx3-vW0UOG89S4S-58" value="Nein" style="text;html=1;strokeColor=none;fillColor=none;align=center;verticalAlign=middle;whiteSpace=wrap;rounded=0;" vertex="1" parent="WIyWlLk6GJQsqaUBKTNV-1">
          <mxGeometry x="570" y="430" width="60" height="30" as="geometry" />
        </mxCell>
        <mxCell id="8wObXkx3-vW0UOG89S4S-60" value="Ja" style="text;html=1;strokeColor=none;fillColor=none;align=center;verticalAlign=middle;whiteSpace=wrap;rounded=0;" vertex="1" parent="WIyWlLk6GJQsqaUBKTNV-1">
          <mxGeometry x="550" y="500" width="60" height="30" as="geometry" />
        </mxCell>
        <mxCell id="8wObXkx3-vW0UOG89S4S-73" style="edgeStyle=orthogonalEdgeStyle;rounded=0;orthogonalLoop=1;jettySize=auto;html=1;exitX=0;exitY=0.5;exitDx=0;exitDy=0;entryX=1;entryY=0.5;entryDx=0;entryDy=0;" edge="1" parent="WIyWlLk6GJQsqaUBKTNV-1" source="8wObXkx3-vW0UOG89S4S-62" target="8wObXkx3-vW0UOG89S4S-65">
          <mxGeometry relative="1" as="geometry" />
        </mxCell>
        <mxCell id="8wObXkx3-vW0UOG89S4S-75" style="edgeStyle=orthogonalEdgeStyle;rounded=0;orthogonalLoop=1;jettySize=auto;html=1;exitX=0.5;exitY=1;exitDx=0;exitDy=0;entryX=1;entryY=0.5;entryDx=0;entryDy=0;" edge="1" parent="WIyWlLk6GJQsqaUBKTNV-1" source="8wObXkx3-vW0UOG89S4S-62" target="8wObXkx3-vW0UOG89S4S-51">
          <mxGeometry relative="1" as="geometry">
            <Array as="points">
              <mxPoint x="440" y="590" />
              <mxPoint x="620" y="590" />
              <mxPoint x="620" y="350" />
            </Array>
          </mxGeometry>
        </mxCell>
        <mxCell id="8wObXkx3-vW0UOG89S4S-62" value="Einheit hinzufÃ¼gen" style="rhombus;whiteSpace=wrap;html=1;" vertex="1" parent="WIyWlLk6GJQsqaUBKTNV-1">
          <mxGeometry x="400" y="430" width="80" height="80" as="geometry" />
        </mxCell>
        <mxCell id="8wObXkx3-vW0UOG89S4S-84" style="edgeStyle=orthogonalEdgeStyle;rounded=0;orthogonalLoop=1;jettySize=auto;html=1;exitX=0.5;exitY=0;exitDx=0;exitDy=0;entryX=0.5;entryY=1;entryDx=0;entryDy=0;" edge="1" parent="WIyWlLk6GJQsqaUBKTNV-1" source="8wObXkx3-vW0UOG89S4S-65" target="8wObXkx3-vW0UOG89S4S-83">
          <mxGeometry relative="1" as="geometry" />
        </mxCell>
        <mxCell id="8wObXkx3-vW0UOG89S4S-65" value="Einheiten Ansicht" style="rounded=1;whiteSpace=wrap;html=1;fontSize=12;glass=0;strokeWidth=1;shadow=0;" vertex="1" parent="WIyWlLk6GJQsqaUBKTNV-1">
          <mxGeometry x="230" y="530" width="120" height="40" as="geometry" />
        </mxCell>
        <mxCell id="8wObXkx3-vW0UOG89S4S-68" style="edgeStyle=orthogonalEdgeStyle;rounded=0;orthogonalLoop=1;jettySize=auto;html=1;exitX=1;exitY=0.5;exitDx=0;exitDy=0;entryX=1;entryY=0.5;entryDx=0;entryDy=0;" edge="1" parent="WIyWlLk6GJQsqaUBKTNV-1" source="8wObXkx3-vW0UOG89S4S-66" target="8wObXkx3-vW0UOG89S4S-51">
          <mxGeometry relative="1" as="geometry" />
        </mxCell>
        <mxCell id="8wObXkx3-vW0UOG89S4S-71" style="edgeStyle=orthogonalEdgeStyle;rounded=0;orthogonalLoop=1;jettySize=auto;html=1;exitX=0.5;exitY=0;exitDx=0;exitDy=0;entryX=0.75;entryY=0;entryDx=0;entryDy=0;" edge="1" parent="WIyWlLk6GJQsqaUBKTNV-1" source="8wObXkx3-vW0UOG89S4S-66" target="8wObXkx3-vW0UOG89S4S-1">
          <mxGeometry relative="1" as="geometry" />
        </mxCell>
        <mxCell id="8wObXkx3-vW0UOG89S4S-66" value="Abbrechen" style="rhombus;whiteSpace=wrap;html=1;" vertex="1" parent="WIyWlLk6GJQsqaUBKTNV-1">
          <mxGeometry x="520" y="180" width="80" height="80" as="geometry" />
        </mxCell>
        <mxCell id="8wObXkx3-vW0UOG89S4S-69" value="Nein" style="text;html=1;strokeColor=none;fillColor=none;align=center;verticalAlign=middle;whiteSpace=wrap;rounded=0;" vertex="1" parent="WIyWlLk6GJQsqaUBKTNV-1">
          <mxGeometry x="570" y="240" width="60" height="30" as="geometry" />
        </mxCell>
        <mxCell id="8wObXkx3-vW0UOG89S4S-72" value="Ja" style="text;html=1;strokeColor=none;fillColor=none;align=center;verticalAlign=middle;whiteSpace=wrap;rounded=0;" vertex="1" parent="WIyWlLk6GJQsqaUBKTNV-1">
          <mxGeometry x="540" y="150" width="60" height="30" as="geometry" />
        </mxCell>
        <mxCell id="8wObXkx3-vW0UOG89S4S-74" value="Ja" style="text;html=1;strokeColor=none;fillColor=none;align=center;verticalAlign=middle;whiteSpace=wrap;rounded=0;" vertex="1" parent="WIyWlLk6GJQsqaUBKTNV-1">
          <mxGeometry x="360" y="440" width="60" height="30" as="geometry" />
        </mxCell>
        <mxCell id="8wObXkx3-vW0UOG89S4S-76" value="Nein" style="text;html=1;strokeColor=none;fillColor=none;align=center;verticalAlign=middle;whiteSpace=wrap;rounded=0;" vertex="1" parent="WIyWlLk6GJQsqaUBKTNV-1">
          <mxGeometry x="430" y="500" width="60" height="30" as="geometry" />
        </mxCell>
        <mxCell id="8wObXkx3-vW0UOG89S4S-86" style="edgeStyle=orthogonalEdgeStyle;rounded=0;orthogonalLoop=1;jettySize=auto;html=1;exitX=0.5;exitY=0;exitDx=0;exitDy=0;entryX=0.5;entryY=1;entryDx=0;entryDy=0;" edge="1" parent="WIyWlLk6GJQsqaUBKTNV-1" source="8wObXkx3-vW0UOG89S4S-83" target="8wObXkx3-vW0UOG89S4S-85">
          <mxGeometry relative="1" as="geometry" />
        </mxCell>
        <mxCell id="8wObXkx3-vW0UOG89S4S-83" value="Einheit auswÃ¤hlen" style="rounded=1;whiteSpace=wrap;html=1;fontSize=12;glass=0;strokeWidth=1;shadow=0;" vertex="1" parent="WIyWlLk6GJQsqaUBKTNV-1">
          <mxGeometry x="230" y="460" width="120" height="40" as="geometry" />
        </mxCell>
        <mxCell id="8wObXkx3-vW0UOG89S4S-87" style="edgeStyle=orthogonalEdgeStyle;rounded=0;orthogonalLoop=1;jettySize=auto;html=1;exitX=1;exitY=0.5;exitDx=0;exitDy=0;entryX=0.5;entryY=1;entryDx=0;entryDy=0;" edge="1" parent="WIyWlLk6GJQsqaUBKTNV-1" source="8wObXkx3-vW0UOG89S4S-85" target="8wObXkx3-vW0UOG89S4S-43">
          <mxGeometry relative="1" as="geometry" />
        </mxCell>
        <mxCell id="8wObXkx3-vW0UOG89S4S-85" value="Einheit hinzufÃ¼gen" style="rounded=1;whiteSpace=wrap;html=1;fontSize=12;glass=0;strokeWidth=1;shadow=0;" vertex="1" parent="WIyWlLk6GJQsqaUBKTNV-1">
          <mxGeometry x="230" y="390" width="120" height="40" as="geometry" />
        </mxCell>
      </root>
    </mxGraphModel>
  </diagram>
</mxfile>
